<svg width="10" height="17" viewBox="0 0 10 17" fill="none" xmlns="http://www.w3.org/2000/svg">
<path fill-rule="evenodd" clip-rule="evenodd" d="M7.70363 8.51762L0.238779 1.33297C-0.0796373 1.02651 -0.0795867 0.534266 0.238893 0.22786C0.241586 0.225269 0.244298 0.222697 0.24703 0.220143C0.564191 -0.0764094 1.07472 -0.0729067 1.38733 0.227966L8.85196 7.41241L8.85558 7.40893L10 8.51099L9.99669 8.51418L10 8.51736L8.85145 9.62236L8.84833 9.61936L1.41535 16.7729C1.41263 16.7755 1.40989 16.7781 1.40712 16.7807C1.09107 17.0762 0.582362 17.0726 0.270883 16.7728C-0.0464741 16.4673 -0.0464594 15.9767 0.270916 15.6713L7.70363 8.51762Z" fill="black" fill-opacity="0.0760303"/>
</svg>
