<svg width="25" height="24" viewBox="0 0 25 24" fill="none" xmlns="http://www.w3.org/2000/svg">
<path fill-rule="evenodd" clip-rule="evenodd" d="M18.6567 0C16.0281 0 13.8336 1.10675 12.5005 3.0642C11.1679 1.10675 8.97286 0 6.34425 0C3.28013 0 0 1.63988 0 4.08094V22.4281C0 22.6212 0.105004 22.7982 0.274011 22.8897C0.443518 22.9803 0.649526 22.9713 0.808032 22.8652C0.848534 22.8382 4.8937 20.1686 8.15583 20.1686C10.2694 20.1686 11.523 21.2844 11.99 23.5809C11.993 23.5964 12.0025 23.6094 12.007 23.6244C12.0155 23.6529 12.026 23.6794 12.039 23.7059C12.054 23.7359 12.0705 23.7629 12.0905 23.789C12.107 23.811 12.1245 23.8315 12.1445 23.8505C12.1685 23.874 12.1945 23.8935 12.223 23.9115C12.2455 23.926 12.2675 23.9405 12.293 23.951C12.3255 23.9655 12.359 23.9735 12.3945 23.9815C12.413 23.9855 12.429 23.9955 12.4485 23.9975C12.4655 23.999 12.4825 24 12.5 24H12.5005H12.501H12.5015C12.5185 24 12.5355 23.9985 12.553 23.9975C12.572 23.9955 12.588 23.986 12.6065 23.9815C12.6415 23.9735 12.6755 23.966 12.708 23.951C12.733 23.94 12.755 23.926 12.778 23.9115C12.8065 23.8935 12.8325 23.874 12.8565 23.8505C12.8765 23.8315 12.8935 23.811 12.91 23.789C12.93 23.7629 12.9465 23.7359 12.961 23.7059C12.974 23.6794 12.9845 23.6529 12.993 23.6244C12.9975 23.6094 13.007 23.5964 13.01 23.5809C13.477 21.2844 14.7311 20.1686 16.8442 20.1686C20.1068 20.1686 24.1515 22.8377 24.192 22.8652C24.351 22.9708 24.5565 22.9803 24.726 22.8897C24.895 22.7982 25 22.6212 25 22.4281V4.08094C25.001 1.63988 21.7214 0 18.6567 0ZM8.15633 19.1209C5.47222 19.1209 2.4561 20.6702 1.04204 21.4934V4.08094C1.04204 2.49407 3.56964 1.04874 6.34475 1.04874C8.85485 1.04874 10.9014 2.199 11.98 4.21046V20.8908C11.1199 19.7245 9.82989 19.1209 8.15633 19.1209ZM23.9595 21.4934C22.5454 20.6702 19.5293 19.1209 16.8452 19.1209C15.1716 19.1209 13.8816 19.7245 13.0215 20.8908V4.21097C14.1001 2.1995 16.1471 1.04924 18.6567 1.04924C21.4319 1.04924 23.959 2.49457 23.959 4.08144V21.4934H23.9595Z" fill="#007AFF"/>
</svg>
