<svg width="20" height="27" viewBox="0 0 20 27" fill="none" xmlns="http://www.w3.org/2000/svg">
<path fill-rule="evenodd" clip-rule="evenodd" d="M5.768 4.74296L6.145 5.15248C6.237 5.25027 6.384 5.25231 6.4735 5.15757L9.5 2.03625V17.3224H10.5005V1.90392L13.7535 5.21818C13.842 5.31139 13.9875 5.30936 14.079 5.21258L14.4925 4.80968C14.584 4.71342 14.586 4.55908 14.497 4.46536L10.7302 0.628156C10.7232 0.575879 10.7004 0.525078 10.662 0.484289L10.285 0.0747718C10.1925 -0.0230233 10.0455 -0.0250607 9.9565 0.0696783L5.7625 4.39507C5.673 4.48981 5.676 4.64567 5.768 4.74296ZM1.5 25.9813V8.66342H7.5V7.64472H0.5V27H19.5V7.64472H12.5V8.66342H18.5V25.9813H1.5Z" fill="#007AFF"/>
</svg>
